<svg xmlns="http://www.w3.org/2000/svg" xml:space="preserve" viewBox="0 0 512 512">
	<path fill="#f4fbff"
		d="M338.5 504.5h-258a68.2 68.2 0 0 1-68.2-68.2V128.7a68.2 68.2 0 0 1 68.2-68.2h258a68.2 68.2 0 0 1 68.2 68.2v307.6a68.2 68.2 0 0 1-68.2 68.2z"
		data-original="#f4fbff" />
	<path fill="#e4f6ff"
		d="M113 504.5H80.4a68.2 68.2 0 0 1-68.2-68.2V128.7a68.2 68.2 0 0 1 68.2-68.2h32.4a68.2 68.2 0 0 0-68.2 68.2v307.6a68.2 68.2 0 0 0 68.2 68.2z"
		data-original="#e4f6ff" />
	<path fill="#ffe07d" d="M267.5 46.9a62.4 62.4 0 0 0-116 0h-22a42.7 42.7 0 0 0 0 85.3h160a42.7 42.7 0 0 0 0-85.3z"
		data-original="#ffe07d" />
	<path fill="#ffd064"
		d="M229.8 10.9c-17.2 6-31 19.2-37.6 36h-22a42.7 42.7 0 0 0 0 85.3h-40.6a42.5 42.5 0 0 1-42.7-42.6 42.7 42.7 0 0 1 42.7-42.7h22a62.4 62.4 0 0 1 57.9-39.4 61.9 61.9 0 0 1 20.3 3.4z"
		data-original="#ffd064" />
	<circle cx="209.5" cy="69.9" r="25.5" fill="#365e7d" data-original="#365e7d" />
	<path fill="#b3e59f"
		d="M138 271.6H94.4c-14 0-25.4-11.4-25.4-25.4v-43.7c0-14 11.4-25.4 25.4-25.4h43.8c14 0 25.3 11.4 25.3 25.4v43.7c0 14-11.3 25.4-25.3 25.4zm0 142.8H94.4C80.4 414.4 69 403 69 389v-43.7c0-14 11.4-25.4 25.4-25.4h43.8c14 0 25.3 11.4 25.3 25.4V389c0 14-11.3 25.4-25.3 25.4z"
		data-original="#b3e59f" />
	<path fill="#80b4fb"
		d="M404.4 241.2c10.6 8.3 26 6.4 34.3-4.2l52-66.3a24.4 24.4 0 1 0-38.4-30l-52 66.2a24.4 24.4 0 0 0 4.1 34.3z"
		data-original="#80b4fb" />
	<path fill="#ffe07d" d="m314.6 337.9-8.7 11a29.6 29.6 0 0 1-46.5-36.5l8.6-11 46.4-4z" data-original="#ffe07d" />
	<path fill="#ffd064"
		d="M271.5 348.6a29.8 29.8 0 0 0 3.5 10.7 29.5 29.5 0 0 1-10.6-5.4 29.5 29.5 0 0 1-11.1-19.7c-1-7.5 1-15.3 6-21.8l8.7-11 46.4-4v15.9l-28 2.4-8.8 11c-5 6.5-7 14.4-6 21.9z"
		data-original="#ffd064" />
	<path fill="#e27f83" d="M439.2 179 314.6 337.9 268 301.4l124.5-158.6" data-original="#e27f83" />
	<path fill="#c8646d" d="m411 156.8-124.7 159-18.3-14.4 124.5-158.6" data-original="#c8646d" />
	<path fill="#9dc6fb" d="m451.4 158.1 45.1-68.9a19.3 19.3 0 0 0-30.3-23.7l-56.1 60.2" data-original="#9dc6fb" />
	<path fill="#80b4fb"
		d="M492.3 63.4c-.8-.5-2.6.4-5 2.5a72.5 72.5 0 0 0-8.8 9.2L427 139l-17-13.3 56.1-60.2a19.3 19.3 0 0 1 12.7-6.1c4.6-.4 9.4 1 13.4 4z"
		data-original="#80b4fb" />
	<path fill="#9dc6fb" d="M451.4 158.1 410 125.7a15 15 0 0 0-18.5 23.5l41.3 32.4a15 15 0 0 0 18.5-23.5z"
		data-original="#9dc6fb" />
	<path fill="#80b4fb"
		d="M406.6 155.4a14.9 14.9 0 0 0 5.6 10l-20.6-16.2a14.9 14.9 0 0 1-2.5-21 15 15 0 0 1 21-2.5l20.5 16.1a15 15 0 0 0-21 2.6 14.9 14.9 0 0 0-3 11z"
		data-original="#80b4fb" />
	<path
		d="M209.5 36.8a33 33 0 1 0 0 66.2 33 33 0 0 0 0-66.2zm0 51a18 18 0 1 1 0-36 18 18 0 0 1 0 36zM94.3 279.2h43.8a32.9 32.9 0 0 0 32.8-32.9v-43.7a32.9 32.9 0 0 0-32.8-32.9H94.3a32.9 32.9 0 0 0-32.9 32.9v43.7a32.9 32.9 0 0 0 32.9 32.9zm-17.9-76.6c0-9.9 8-17.9 17.9-17.9h43.8c9.8 0 17.8 8 17.8 17.9v43.7c0 9.9-8 17.9-17.8 17.9H94.3c-9.9 0-17.9-8-17.9-17.9z"
		data-original="#000000" />
	<path
		d="M105.5 251.3a7.5 7.5 0 0 0 12.1-.8l26.2-41.6a7.5 7.5 0 0 0-12.7-8l-20.7 32.8-10.8-13.2a7.5 7.5 0 0 0-11.6 9.6zm91.4-38.4h116.8a7.5 7.5 0 1 0 0-15H197a7.5 7.5 0 1 0 0 15zm0 38h58.4a7.5 7.5 0 1 0 0-15H197a7.5 7.5 0 1 0 0 15zM61.4 389a32.9 32.9 0 0 0 32.9 33h43.8a32.9 32.9 0 0 0 32.8-32.9v-43.7a32.9 32.9 0 0 0-32.8-32.9H94.3a32.9 32.9 0 0 0-32.9 32.9zm15-43.7c0-9.9 8-17.9 17.9-17.9h43.8c9.8 0 17.8 8 17.8 17.9V389c0 9.9-8 17.9-17.8 17.9H94.3c-9.9 0-17.9-8-17.9-17.9z"
		data-original="#000000" />
	<path
		d="M105.5 394.1a7.5 7.5 0 0 0 12.1-.8l26.2-41.6a7.5 7.5 0 0 0-12.7-8l-20.7 32.8-10.8-13.2A7.5 7.5 0 0 0 88 373zm149.8-.5a7.5 7.5 0 1 0 0-15H197a7.5 7.5 0 1 0 0 15z"
		data-original="#000000" />
	<path
		d="M491.2 130.6a31.9 31.9 0 0 0-9.4-5.1l21-32.1a26.7 26.7 0 0 0-5.9-35.8 27 27 0 0 0-16.5-5.8 27 27 0 0 0-19.7 8.6l-8 8.6a7.5 7.5 0 0 0 .3 10.6 7.5 7.5 0 0 0 10.6-.3l8.1-8.7a11.7 11.7 0 0 1 16-1.2c4.8 3.8 6 10.6 2.5 15.7l-40.6 62L421 125l22.1-23.7a7.5 7.5 0 0 0-11-10.2l-19.8 21.2A76 76 0 0 0 338.5 53h-14.7a50 50 0 0 0-34.4-13.6h-17C260.7 15.3 236.6 0 209.5 0s-51.2 15.3-62.9 39.4h-17A50 50 0 0 0 95.2 53H80.5C38.7 53 4.8 87 4.8 128.7v307.6c0 41.7 34 75.7 75.7 75.7h17.4a7.5 7.5 0 1 0 0-15H80.5a60.8 60.8 0 0 1-60.7-60.7V128.7A60.8 60.8 0 0 1 80.5 68h3.7a49.9 49.9 0 0 0-4.8 21.6 50.2 50.2 0 0 0 50.2 50.1h159.8A50.2 50.2 0 0 0 334.7 68h3.8a61 61 0 0 1 59.2 47.3c-5.5.8-10.8 3.6-14.5 8.3a22.3 22.3 0 0 0-4.6 16.6 22.5 22.5 0 0 0 1.6 6L253.5 307.9a36.8 36.8 0 0 0-7.7 27.3 37.6 37.6 0 0 0 1.1 5.6h-50a7.5 7.5 0 1 0 0 15h56.6l-4.6 5.8a7.5 7.5 0 0 0 5.9 12.1 7.5 7.5 0 0 0 6-2.8l5.3-7a36.7 36.7 0 0 0 16.5 4 37.6 37.6 0 0 0 29.2-14.2l85.4-108.9 2 1.9v189.7a60.8 60.8 0 0 1-60.7 60.7H128a7.5 7.5 0 1 0 0 15h210.6c41.8 0 75.7-34 75.7-75.7v-183a32 32 0 0 0 30.4-11.7l52-66.3a31.7 31.7 0 0 0-5.4-44.8zm-201.8-5.9H129.6a35.2 35.2 0 0 1 0-70.3h22a7.5 7.5 0 0 0 6.9-4.8 54.6 54.6 0 0 1 51-34.6 54.6 54.6 0 0 1 51 34.6 7.5 7.5 0 0 0 7 4.8h22a35.2 35.2 0 0 1 0 70.3zM395 133a7.4 7.4 0 0 1 5-2.8 7.4 7.4 0 0 1 5.4 1.5l41.3 32.4a7.4 7.4 0 0 1 2.8 5 7.4 7.4 0 0 1-1.5 5.5 7.4 7.4 0 0 1-10.4 1.2l-41.3-32.4a7.4 7.4 0 0 1-2.8-5 7.4 7.4 0 0 1 1.5-5.4zm-81.7 194.4-11.5-9L384 213.8a7.5 7.5 0 0 0-1.3-10.6 7.5 7.5 0 0 0-10.5 1.3l-82 104.6-11.5-9 111.7-142.4 34.7 27.2zm-28 25.3a22 22 0 0 1-24.6-19.3 22 22 0 0 1 4.6-16.2l4-5.2 34.7 27.2-4 5.2a22 22 0 0 1-14.7 8.3zM484.8 166l-52 66.3a17 17 0 0 1-23.7 2.9 16.9 16.9 0 0 1-2.6-2.5l32-40.8a22.5 22.5 0 0 0 21.3-8.3 22.3 22.3 0 0 0 4.6-16.5 22.3 22.3 0 0 0-3.6-9.8l12.2-18.6a16.8 16.8 0 0 1 9 3.6 16.8 16.8 0 0 1 2.8 23.7z"
		data-original="#000000" />
</svg>