<svg xmlns="http://www.w3.org/2000/svg" xml:space="preserve" viewBox="0 0 128 128">
	<path
		d="m79.9 65 7.3-7.2a24 24 0 0 1-29.4 29.4l7.3-7.3A16 16 0 0 0 79.9 65zm47.6-3c-.5-.8-7.5-13-21.1-23.4l-5.8 5.8A80 80 0 0 1 119.3 64C114.6 71.2 96 96 64 96c-4.8 0-9.2-.6-13.4-1.6L44 101c6 1.8 12.7 3 20 3 41.9 0 62.6-36.5 63.5-38a4 4 0 0 0 0-4zm-16.7-39.2-88 88a4 4 0 0 1-5.6 0 4 4 0 0 1 0-5.6L28.4 94A84 84 0 0 1 .5 66a4 4 0 0 1 0-4c.9-1.5 21.6-38 63.5-38 10.8 0 20.2 2.5 28.2 6.1l13-13a4 4 0 1 1 5.6 5.7zM34.3 88l10.2-10a24 24 0 0 1 33.4-33.4l8.2-8.2A58.9 58.9 0 0 0 64 32C32 32 13.4 56.8 8.7 64c3 4.6 11.7 16.1 25.6 24zm16-16L72 50.4a15.8 15.8 0 0 0-8-2.4 16 16 0 0 0-16 16c0 3 .9 5.7 2.3 8z"
		data-original="#000000" />
</svg>