<svg xmlns="http://www.w3.org/2000/svg" xml:space="preserve" viewBox="0 0 512 512">
	<path
		d="M255.4 246.6a119 119 0 0 0 87.1-36.1c24-24 36.2-53.3 36.2-87.2 0-33.9-12.2-63.2-36.2-87.2-24-24-53.3-36.1-87.1-36.1-34 0-63.3 12.2-87.2 36.1S132 89.4 132 123.3c0 33.9 12.2 63.2 36.2 87.2 24 24 53.3 36.1 87.2 36.1zm-66-189.3a89.1 89.1 0 0 1 66-27.3c26 0 47.5 9 66 27.3a89.2 89.2 0 0 1 27.3 66c0 26-9 47.6-27.4 66a89.1 89.1 0 0 1-66 27.3c-26 0-47.5-9-66-27.3a89.1 89.1 0 0 1-27.3-66c0-26 9-47.6 27.4-66zM471 393.7a304.6 304.6 0 0 0-12-64.9 160.6 160.6 0 0 0-13.5-30.3c-5.7-10.2-12.5-19-20.1-26.3a89 89 0 0 0-29-18.2 100.1 100.1 0 0 0-37-6.7c-5.2 0-10.2 2.2-20 8.5a2711 2711 0 0 1-20.9 13.5c-6.7 4.3-15.8 8.3-27 11.9a107.3 107.3 0 0 1-66 0 119.3 119.3 0 0 1-27-12l-21-13.4c-9.7-6.3-14.8-8.5-20-8.5a100 100 0 0 0-37 6.7 88.8 88.8 0 0 0-29 18.2 114.4 114.4 0 0 0-20.1 26.3A161 161 0 0 0 58 328.8a302.5 302.5 0 0 0-12 64.9c-.7 9.8-1 20-1 30.2 0 26.8 8.5 48.4 25.3 64.4 16.5 15.7 38.4 23.7 65 23.7h246.5c26.7 0 48.6-8 65.1-23.7 16.8-16 25.3-37.6 25.3-64.4a494 494 0 0 0-1-30.2zm-44.9 72.8c-11 10.4-25.4 15.5-44.4 15.5H135.3c-19 0-33.4-5-44.4-15.5C80.2 456.3 75 442.4 75 424c0-9.5.3-19 1-28.1A272.3 272.3 0 0 1 86.7 338a131 131 0 0 1 10.9-24.7 84.7 84.7 0 0 1 14.8-19.4 59 59 0 0 1 19.3-12 69 69 0 0 1 23.6-4.5c1 .5 3 1.6 6 3.6l21 13.6c9 5.6 20.4 10.7 34 15.1a137.3 137.3 0 0 0 84.5 0c13.7-4.4 25.1-9.5 34-15.1a2666.1 2666.1 0 0 0 27-17.2 69 69 0 0 1 23.7 4.5 59 59 0 0 1 19.2 12 84.6 84.6 0 0 1 14.9 19.4c4.5 8 8.2 16.3 10.9 24.7a275.2 275.2 0 0 1 10.8 57.8h-.1c.6 9 1 18.5 1 28.1 0 18.5-5.3 32.4-16 42.6zm0 0"
		data-original="#000000" />
</svg>