<svg xmlns="http://www.w3.org/2000/svg" xml:space="preserve" fill-rule="evenodd" stroke-linejoin="round"
	stroke-miterlimit="2" clip-rule="evenodd" viewBox="0 0 2095 205">
	<path fill="none" d="M0 0h2094.1v204.5H0z" />
	<path fill-rule="nonzero"
		d="M2081 59.7c4.3-14.2 2.6-27.5-5.3-36.3-8-8.3-20.9-11.7-35.4-8.3a85 85 0 0 0-36.3 20 83.3 83.3 0 0 0-23 33.7c-2.4 7.5-3.2 14.2-2.4 20.4h-610.8V72.6c0-7.1-5.9-13-13-13a13 13 0 0 0-12.9 13v16.6h-220a80.8 80.8 0 0 0 18.8-29.1c5-14.6 2.9-28-5-36.7-8.4-8.3-20.9-11.7-35.9-8.3a83.8 83.8 0 0 0-48.3 34.1c-4.2-5-8.3-10-13.3-14.1a83.3 83.3 0 0 0-35.9-20c-14.5-3.4-27.5 0-35.8 8.3-8 8.8-9.6 22-5 36.3a71.5 71.5 0 0 0 18.8 29.1H760.7V72.2c0-7.1-5.9-13-13-13a13 13 0 0 0-12.9 13v16.6H123.6c.8-5.8 0-12.5-2-20a88.3 88.3 0 0 0-23.4-33.7 83.3 83.3 0 0 0-36.3-20c-14.6-3.4-27.5 0-35.4 8.3-8.3 8.8-10 22-5 36.3a83 83 0 0 0 33.8 42.5A83.3 83.3 0 0 0 21 144.7c-4.2 14.1-2.5 27.5 5.4 36.2 6.3 6.5 15.1 10 24.2 9.6 4.1 0 7.5 0 11.2-1.3a85 85 0 0 0 36.3-20 83.3 83.3 0 0 0 23.3-33.7 51 51 0 0 0 2-20.4h611v16.6a13 13 0 0 0 12.8 13c7.1 0 13-5.9 13-13v-16.6h220a80.8 80.8 0 0 0-18.8 29.1c-4.6 14.6-3 28 5 36.7a32 32 0 0 0 24.6 9.6c3.7 0 7.5 0 11.2-1.3a93.3 93.3 0 0 0 48.8-34.5 83.4 83.4 0 0 0 48.7 34.5l11.3 1.3c9.2.3 18-3.2 24.6-9.6 7.9-8.7 10-22 5-36.2a71.5 71.5 0 0 0-18.8-29.2h219.6v16.7a13 13 0 0 0 25.8 0v-16.7h611.3a44 44 0 0 0 2.5 20 82.7 82.7 0 0 0 23 33.7 83.3 83.3 0 0 0 36.2 20l11.2 1.3c9.6 0 18.3-3.3 24.2-9.6 8.3-8.7 10-22 5.4-36.2a83 83 0 0 0-34.2-42.5c15.9-10 27.9-25 34.2-42.5ZM96.6 127.2A60 60 0 0 1 80.7 150 55.5 55.5 0 0 1 56 164.2c-5.4 1.3-9.2.5-10.4-.8-1.3-1.2-1.7-5 0-10.8a58.3 58.3 0 0 1 16.6-23A51.2 51.2 0 0 1 92 115.2c2.5 0 4.2.8 5 1.2 1.3 1.7 1.7 5.4 0 10.9h-.4ZM97 88c-1.2 1.2-5 1.7-10.4.4A54.4 54.4 0 0 1 62 74.7a58 58 0 0 1-15.8-23c-2-5.8-1.7-9.5-.4-10.8.8-.8 2.5-1.2 5-1.2a54.2 54.2 0 0 1 30 14.5 60 60 0 0 1 15.8 23c2 5.4 1.7 9.1.4 10.8Zm940 39.2a57 57 0 0 1-16.2 22.9 56.6 56.6 0 0 1-24.2 14.1c-5.8 1.3-9.6.5-10.8-.8-1.3-1.2-1.3-5 .4-10.8a60 60 0 0 1 15.8-23 55.6 55.6 0 0 1 30-14.5c3 0 4.2.4 5.4 1.2.9 1.7 1.3 5.4-.4 10.9Zm0-39.2c-.8 1.2-4.6 1.7-10.4.4-8-1.7-16.7-6.7-24.6-13.7a58 58 0 0 1-15.8-23c-1.7-5.8-1.7-9.5 0-10.8.4-.8 2-1.2 5-1.2 1.2 0 3.3 0 5.4.8 8 1.7 16.7 6.7 24.2 13.7a57 57 0 0 1 16.2 23c1.7 5.4 1.3 9.1 0 10.8Zm79.2 75c-.8 1.7-4.6 2.5-10.4 1.2-7.5-2-16.7-7-24.2-14.1a58 58 0 0 1-16.2-23c-1.7-5.4-1.3-9.1 0-10.4.4-.8 2.5-1.6 5-1.6 1.6 0 3.3 0 5.4.8a57.5 57.5 0 0 1 24.6 13.8 60 60 0 0 1 15.8 22.9c2 5.8 1.7 9.6 0 10.8v-.4Zm0-111.3a60 60 0 0 1-15.8 23c-8 7-16.7 12-24.6 13.7-5.9 1.3-9.6.8-10.4-.8-1.3-1.3-1.7-5 0-10.4a57 57 0 0 1 16.2-23c7.5-7 16.7-12.5 24.2-14.1a25 25 0 0 1 5.4-.4c3 0 4.2.4 5.4 1.2 1.3 1.3 1.7 5 0 10.8h-.4Zm940.4 100.5c1.7 5.8 1.3 9.5 0 10.8-1.2 1.2-5 2-10.4.8-8.3-2-16.7-7-24.6-14.1a58 58 0 0 1-15.8-23c-2.1-5.4-1.7-9.1-.4-10.4.8-.8 2.5-1.6 5-1.6a54.2 54.2 0 0 1 30 14.5 58.5 58.5 0 0 1 16.2 23Zm0-100.9c-3 7.5-8.3 15.9-16.2 23a54.2 54.2 0 0 1-24.6 13.7c-5.4 1.2-9.2.8-10.4-.8-1.3-1.3-1.7-5 0-10.5a58.3 58.3 0 0 1 16.6-22.9c6.7-6.7 15-11.6 24.2-14.1a25 25 0 0 1 5.4-.5c2.5 0 4.2.5 5 1.3 1.3 1.2 1.7 5 0 10.8Z" />
</svg>