<svg xmlns="http://www.w3.org/2000/svg" xml:space="preserve" viewBox="0 0 511 511.9">
	<path
		d="M511 150.5a187 187 0 0 0-12-62.1A125 125 0 0 0 469.6 43 126 126 0 0 0 424 13.5a187.5 187.5 0 0 0-62-11.9C334.6.3 325.9 0 256.4 0S178.3.3 151 1.5a187.1 187.1 0 0 0-62 11.9A124.9 124.9 0 0 0 43.4 43 126 126 0 0 0 14 88.3a187.6 187.6 0 0 0-11.8 62.1C.7 177.8.4 186.5.4 256S.8 334.2 2 361.5a187 187 0 0 0 12 62.1A126.2 126.2 0 0 0 43.4 469a126 126 0 0 0 45.4 29.5 187.5 187.5 0 0 0 62 11.9c27.3 1.2 36 1.5 105.6 1.5s78.2-.3 105.5-1.5a187 187 0 0 0 62-11.9 131 131 0 0 0 75-74.9 187.7 187.7 0 0 0 11.8-62.1c1.3-27.3 1.6-36 1.6-105.5s-.2-78.2-1.3-105.5zm-46.1 209c-1.2 25-5.3 38.5-8.8 47.5a85 85 0 0 1-48.7 48.6c-9 3.5-22.5 7.7-47.5 8.8-27 1.2-35 1.5-103.3 1.5s-76.5-.3-103.5-1.5c-25-1.1-38.5-5.3-47.5-8.8a78.8 78.8 0 0 1-29.3-19.1A79.6 79.6 0 0 1 57 407.1a139 139 0 0 1-8.7-47.5c-1.3-27-1.5-35.1-1.5-103.4s.2-76.5 1.5-103.4c1-25 5.2-38.5 8.7-47.5a77.8 77.8 0 0 1 19.3-29.4c8.2-8.5 18.2-15 29.3-19.1 9-3.5 22.7-7.7 47.5-8.8 27-1.2 35.2-1.5 103.4-1.5 68.5 0 76.5.3 103.5 1.5 25 1.1 38.5 5.3 47.5 8.8a78.7 78.7 0 0 1 29.3 19.1 81 81 0 0 1 19.2 29.4c3.5 9 7.7 22.6 8.8 47.5 1.2 27 1.5 35.1 1.5 103.4s-.3 76.3-1.5 103.3zm0 0"
		data-original="#000000" />
	<path
		d="M256.4 124.5a131.5 131.5 0 1 0 .1 263 131.5 131.5 0 0 0 0-263zm0 216.8a85.3 85.3 0 1 1 0-170.6 85.3 85.3 0 0 1 0 170.6zm167.5-222a30.7 30.7 0 1 1-61.5 0 30.7 30.7 0 0 1 61.5 0zm0 0"
		data-original="#000000" />
</svg>